<svg width="35" height="35" viewBox="0 0 35 35" fill="none" xmlns="http://www.w3.org/2000/svg">
<path d="M15.9961 0C17.001 0 17.999 0 19.0039 0C19.5576 0.0820312 20.1113 0.129883 20.6582 0.246094C27.4805 1.70898 32.0195 5.75586 34.2686 12.3594C34.6787 13.5625 34.8564 14.8135 35 16.0645C35 17.0215 35 17.9785 35 18.9355C34.918 19.5098 34.8701 20.0908 34.7471 20.6582C33.2295 27.6924 29.0186 32.2793 22.1484 34.4121C21.1025 34.7402 20.0156 34.8701 18.9287 35C17.9717 35 17.0146 35 16.0576 35C15.4697 34.918 14.8818 34.8701 14.3076 34.7471C7.29395 33.209 2.7207 29.0117 0.587891 22.1553C0.266602 21.1299 0.136719 20.0635 0 19.0039C0 17.999 0 17.001 0 15.9961C0.0820312 15.4424 0.129883 14.8887 0.25293 14.3418C1.76367 7.32129 5.96777 2.74805 12.8174 0.594727C13.8496 0.273438 14.9229 0.143555 15.9961 0ZM30.5977 18.4297C30.4609 13.583 28.9775 10.8145 27.46 9.03711C27.2617 8.79785 27.1455 8.80469 26.9268 9.0166C20.9658 14.9912 14.9912 20.959 9.0166 26.9199C8.77734 27.1592 8.81152 27.2754 9.05078 27.4736C11.6963 29.6543 14.7109 30.707 18.1426 30.5498C20.7402 30.4268 23.1055 29.6201 25.1836 28.0615C28.875 25.3066 30.6182 21.5811 30.5977 18.4297Z" fill="#333333"/>
</svg>
